<?xml version="1.0" standalone="no"?>
<!DOCTYPE svg PUBLIC "-//W3C//DTD SVG 20010904//EN"
 "http://www.w3.org/TR/2001/REC-SVG-20010904/DTD/svg10.dtd">
<svg version="1.0" xmlns="http://www.w3.org/2000/svg"
 width="1080.000000pt" height="1080.000000pt" viewBox="0 0 1080.000000 1080.000000"
 preserveAspectRatio="xMidYMid meet">
<metadata>
Created by potrace 1.14, written by Peter Selinger 2001-2017
</metadata>
<g transform="translate(0.000000,1080.000000) scale(0.100000,-0.100000)"
fill="#000000" stroke="none">
<path d="M0 5400 l0 -5400 5400 0 5400 0 0 5400 0 5400 -5400 0 -5400 0 0
-5400z m9630 5340 c140 -76 157 -179 45 -278 -77 -67 -103 -71 -590 -79 -275
-5 -430 -12 -430 -18 0 -5 15 -19 34 -30 109 -66 403 -263 437 -294 23 -20 64
-54 90 -76 106 -88 254 -247 339 -365 50 -69 95 -134 101 -145 6 -11 30 -54
54 -95 23 -41 52 -107 65 -147 13 -40 29 -83 36 -95 21 -40 39 -120 60 -278
16 -114 22 -331 10 -355 -6 -11 -12 -47 -15 -80 -6 -88 -30 -188 -63 -270 -12
-27 -31 -77 -43 -110 -12 -33 -26 -67 -31 -75 -5 -8 -29 -54 -54 -103 -49 -94
-116 -197 -171 -261 -19 -22 -34 -43 -34 -47 0 -7 -71 -88 -175 -198 -64 -68
-313 -289 -438 -388 -57 -46 -299 -211 -387 -263 -268 -161 -616 -340 -1355
-695 -174 -83 -184 -88 -250 -125 -151 -84 -182 -101 -212 -115 -56 -26 -237
-154 -292 -208 -90 -87 -120 -131 -183 -259 -31 -66 27 -192 132 -290 94 -86
147 -129 200 -162 25 -15 72 -44 105 -65 86 -54 630 -321 787 -387 35 -14 68
-30 73 -34 6 -4 69 -33 140 -65 142 -62 297 -134 360 -167 104 -54 174 -89
215 -108 25 -11 72 -35 105 -54 33 -19 105 -57 159 -86 55 -28 114 -62 131
-76 18 -13 37 -24 43 -24 14 0 339 -215 343 -228 2 -5 20 -20 39 -33 65 -44
213 -173 303 -264 93 -94 270 -322 309 -398 71 -137 85 -166 98 -207 7 -25 17
-49 20 -55 16 -24 44 -104 52 -150 33 -184 44 -350 28 -426 -6 -30 -15 -79
-20 -109 -14 -96 -21 -134 -30 -155 -4 -11 -13 -36 -20 -55 -7 -19 -19 -50
-26 -67 -8 -18 -20 -48 -28 -65 -33 -80 -62 -133 -125 -227 -20 -30 -46 -70
-58 -90 -26 -43 -219 -267 -246 -286 -10 -7 -56 -48 -103 -92 -123 -115 -155
-140 -307 -243 -76 -51 -136 -98 -134 -104 3 -8 106 -10 338 -8 200 2 358 -1
394 -7 81 -14 161 -69 195 -133 l25 -48 -23 -44 c-14 -26 -35 -48 -50 -54 -17
-7 -306 -13 -747 -16 -396 -3 -1366 -13 -2155 -21 -789 -8 -1912 -19 -2495
-25 -583 -5 -1499 -15 -2036 -21 -724 -8 -982 -8 -998 0 -31 17 -51 64 -51
118 0 59 35 108 108 150 43 25 60 29 187 36 77 5 253 12 390 15 157 4 250 11
249 17 -1 6 -14 17 -30 25 -47 25 -232 148 -236 158 -1 5 -32 29 -68 53 -92
62 -350 326 -441 450 -63 86 -191 315 -221 394 -55 150 -73 248 -84 459 -4 74
-1 111 10 147 9 26 16 67 16 90 0 23 4 56 9 73 6 17 16 54 25 81 39 135 101
275 166 375 19 31 49 78 65 104 17 26 48 69 70 96 22 26 69 82 105 125 61 72
287 286 341 322 13 9 40 30 59 48 39 36 397 281 426 292 11 3 38 19 61 35 23
15 52 32 65 37 13 5 49 24 80 43 109 67 790 400 1103 541 101 45 170 79 410
199 175 88 237 121 271 144 16 11 45 27 64 36 19 8 55 33 80 55 25 21 61 51
81 65 61 45 170 160 191 203 25 48 29 161 7 203 -64 126 -223 273 -400 369
-29 17 -95 53 -146 82 -50 28 -94 51 -97 51 -2 0 -60 27 -128 61 -68 33 -139
66 -158 74 -19 7 -82 35 -140 63 -167 79 -238 112 -245 112 -4 0 -67 29 -140
65 -74 36 -137 65 -142 65 -4 0 -21 7 -38 16 -16 9 -93 48 -170 86 -77 38
-149 74 -160 80 -11 6 -62 33 -113 60 -51 26 -107 59 -125 72 -18 13 -50 33
-72 43 -51 26 -142 82 -179 111 -16 12 -35 22 -43 22 -8 0 -24 11 -36 23 -12
13 -64 52 -114 86 -51 34 -93 66 -93 70 0 5 -17 20 -37 33 -77 47 -355 310
-449 424 -63 77 -196 264 -223 314 -13 25 -30 52 -36 60 -27 32 -134 294 -147
360 -5 25 -16 81 -25 125 -20 97 -30 532 -13 549 5 5 10 21 10 35 0 13 4 38 9
55 5 17 15 51 21 76 7 25 16 54 20 65 5 11 11 29 13 40 10 38 113 250 152 310
188 291 442 544 770 767 94 63 180 118 192 122 26 8 49 34 39 44 -4 4 -202 9
-439 12 -399 5 -435 6 -467 24 -92 49 -130 100 -130 171 0 44 5 57 35 92 20
23 56 50 87 63 51 23 68 24 383 31 364 9 1961 24 4265 40 828 6 1764 14 2080
18 316 5 787 8 1045 7 l470 -1 65 -35z"/>
<path d="M5320 10358 c-613 -4 -1324 -12 -1580 -16 l-465 -9 -70 -27 c-38 -15
-94 -38 -123 -51 -29 -14 -55 -25 -57 -25 -7 0 -210 -96 -295 -139 -134 -69
-184 -97 -239 -134 -29 -21 -57 -37 -62 -37 -13 0 -119 -71 -119 -80 0 -4 -28
-27 -62 -50 -178 -123 -415 -371 -518 -542 -87 -146 -173 -360 -192 -483 -15
-92 -21 -346 -9 -358 6 -6 11 -27 11 -46 0 -19 8 -60 19 -90 10 -31 24 -76 31
-101 13 -45 75 -187 108 -247 38 -70 132 -221 139 -225 5 -1 24 -23 43 -48
103 -134 294 -327 383 -387 20 -14 37 -29 37 -33 0 -4 30 -27 67 -51 37 -24
90 -62 118 -85 27 -22 58 -43 67 -47 10 -3 65 -38 123 -77 58 -39 117 -75 131
-81 15 -5 38 -18 53 -28 55 -39 595 -304 831 -408 139 -61 160 -70 310 -141
58 -27 130 -60 160 -73 46 -20 153 -74 405 -201 22 -12 65 -37 95 -57 30 -20
76 -47 102 -60 84 -42 263 -202 335 -299 51 -68 149 -259 139 -269 -2 -3 1
-21 8 -41 21 -61 9 -196 -23 -262 -87 -178 -211 -310 -432 -460 -81 -55 -156
-103 -166 -107 -10 -3 -36 -19 -58 -33 -35 -24 -97 -59 -235 -130 -89 -47
-286 -142 -390 -190 -63 -29 -157 -72 -208 -96 -51 -24 -95 -44 -97 -44 -14 0
-646 -312 -740 -366 -33 -18 -76 -41 -95 -50 -19 -9 -53 -28 -75 -43 -22 -15
-51 -32 -65 -38 -48 -21 -416 -277 -490 -341 -184 -159 -402 -407 -461 -524
-12 -24 -27 -50 -34 -58 -7 -8 -28 -49 -45 -90 -18 -41 -41 -92 -51 -113 -10
-22 -19 -51 -19 -66 0 -15 -4 -31 -9 -37 -15 -16 -24 -112 -24 -274 0 -130 3
-165 20 -215 27 -77 112 -265 129 -286 8 -8 14 -18 14 -21 0 -18 78 -128 152
-216 91 -107 127 -141 277 -268 60 -51 287 -204 359 -241 229 -120 365 -183
540 -249 62 -24 71 -24 375 -25 172 0 758 5 1302 10 545 6 1305 8 1690 5 385
-3 837 -1 1005 4 l305 9 120 47 c153 61 412 190 492 244 34 23 74 47 89 52 32
12 204 131 204 140 0 4 19 20 42 35 49 32 66 47 190 165 78 74 238 266 238
286 0 4 12 22 26 41 30 40 139 266 149 308 3 17 11 50 18 75 6 25 11 122 11
220 0 163 -2 181 -27 262 -15 47 -41 112 -57 143 -17 31 -30 63 -30 70 0 7
-16 36 -35 65 -19 29 -35 55 -35 59 0 10 -124 176 -159 214 -89 97 -196 200
-260 252 -41 33 -95 77 -120 97 -84 68 -214 152 -456 295 -78 47 -553 287
-630 320 -33 14 -96 42 -140 63 -138 65 -206 96 -340 155 -71 32 -193 88 -270
125 -77 37 -160 77 -185 89 -41 19 -150 78 -289 156 -86 49 -251 157 -251 165
0 4 -17 19 -39 33 -37 24 -169 155 -209 207 -11 14 -32 49 -48 79 -16 29 -34
63 -41 75 -16 29 -32 210 -24 276 4 30 14 69 24 85 9 17 26 53 38 80 11 28 44
86 74 130 47 70 89 115 230 244 33 31 176 128 201 138 9 3 55 29 103 56 184
106 329 180 776 392 277 131 808 401 853 434 16 11 53 33 83 49 145 77 449
274 449 291 0 5 26 26 59 47 142 94 431 384 516 518 11 17 33 49 48 71 55 79
93 141 116 190 12 28 35 77 51 110 28 60 39 91 60 175 6 25 16 59 22 75 28 79
48 312 29 349 -5 12 -12 39 -16 61 -3 22 -8 57 -11 78 -4 20 -10 40 -15 43 -5
3 -9 18 -9 34 0 16 -5 42 -11 57 -29 71 -125 261 -146 289 -13 17 -23 35 -23
39 0 35 -247 309 -360 400 -35 28 -81 66 -104 86 -51 44 -187 136 -221 149
-14 5 -52 27 -83 48 -71 47 -295 158 -427 212 -55 22 -113 47 -130 56 -16 9
-67 29 -112 45 l-81 29 -589 -2 c-323 -1 -1090 -5 -1703 -10z m1465 -2783
c421 -7 905 -37 1120 -70 50 -7 119 -16 155 -20 91 -9 120 -15 120 -27 0 -21
-152 -156 -210 -187 -34 -18 -76 -45 -93 -60 -18 -15 -90 -60 -162 -101 -71
-40 -179 -103 -240 -140 -146 -88 -430 -250 -440 -250 -4 0 -51 -26 -104 -58
-53 -32 -148 -89 -211 -127 -63 -38 -135 -82 -159 -99 -25 -17 -66 -42 -92
-56 -25 -14 -84 -49 -130 -78 -46 -29 -119 -74 -161 -100 -111 -68 -301 -196
-389 -263 -149 -113 -290 -294 -329 -423 -9 -28 -22 -52 -30 -54 -10 -1 -33
32 -65 94 -88 171 -287 414 -402 490 -30 20 -69 49 -87 64 -33 29 -320 219
-476 315 -52 32 -169 98 -260 146 -91 47 -214 113 -275 145 -162 87 -317 155
-520 228 -99 35 -222 83 -274 106 -132 58 -279 158 -254 173 5 3 74 1 153 -5
80 -6 235 -8 345 -4 187 5 305 16 715 65 301 36 341 42 435 61 52 11 197 35
322 55 125 19 305 48 398 65 360 63 733 110 890 111 72 0 168 4 215 8 47 4
108 6 135 4 28 -1 190 -5 360 -8z m901 -4815 c99 -6 224 -17 279 -25 55 -8
145 -19 200 -25 55 -6 120 -16 145 -22 25 -5 98 -18 163 -28 126 -20 145 -29
199 -97 42 -53 74 -119 108 -222 23 -72 30 -114 35 -227 8 -154 -5 -251 -52
-374 -13 -36 -36 -99 -50 -140 -48 -140 -189 -310 -442 -533 -103 -90 -398
-272 -468 -287 -169 -38 -594 -59 -1213 -61 -294 0 -692 -7 -885 -14 -192 -7
-510 -14 -705 -14 -195 -1 -429 -6 -520 -11 -91 -6 -322 -15 -515 -20 -192 -6
-422 -13 -510 -16 l-160 -6 -94 37 c-52 20 -165 74 -251 120 -86 45 -191 99
-233 118 -87 41 -221 126 -317 203 -79 63 -242 230 -292 299 -20 28 -51 63
-68 79 -30 28 -110 172 -110 198 0 8 -9 30 -20 51 -12 21 -25 75 -31 120 -11
91 -6 117 72 365 21 68 39 128 39 133 0 5 16 42 35 83 19 41 44 97 55 125 25
65 59 111 80 111 10 0 52 -16 95 -36 43 -20 110 -45 149 -56 39 -11 84 -28
101 -38 47 -29 268 -97 405 -125 69 -14 149 -32 177 -40 95 -28 594 -111 748
-125 133 -12 438 -12 522 0 38 5 111 14 163 20 103 12 185 25 380 60 134 23
418 95 1035 260 88 23 180 46 205 51 191 35 286 50 353 59 43 5 81 11 86 14 4
3 89 10 187 17 98 6 224 14 279 18 153 12 443 12 641 1z"/>
</g>
</svg>
