<?xml version="1.0" standalone="no"?>
<!DOCTYPE svg PUBLIC "-//W3C//DTD SVG 20010904//EN"
 "http://www.w3.org/TR/2001/REC-SVG-20010904/DTD/svg10.dtd">
<svg version="1.0" xmlns="http://www.w3.org/2000/svg"
 width="398.000000pt" height="92.000000pt" viewBox="0 0 398.000000 92.000000"
 preserveAspectRatio="xMidYMid meet">

<g transform="translate(0.000000,92.000000) scale(0.100000,-0.100000)"
fill="#000000" stroke="none">
<path d="M558 851 c-158 -63 -238 -191 -238 -384 0 -155 69 -284 185 -345 46
-24 60 -27 165 -27 97 0 122 3 162 22 l48 22 52 -40 c61 -45 68 -47 87 -17 13
20 11 24 -25 55 -22 18 -42 33 -46 33 -15 0 -8 18 27 70 102 152 89 397 -28
527 -20 22 -62 52 -94 68 -76 37 -221 45 -295 16z m225 -77 c62 -21 131 -97
152 -167 19 -65 19 -167 0 -242 -16 -61 -50 -125 -66 -125 -5 0 -30 16 -55 35
l-46 35 -21 -26 -20 -26 39 -33 c55 -47 39 -60 -74 -60 -110 0 -167 25 -217
94 -45 61 -60 118 -59 221 2 166 61 263 184 301 43 13 135 10 183 -7z"/>
<path d="M2941 748 l2 -73 -36 -3 c-35 -3 -37 -5 -37 -37 0 -32 2 -34 38 -37
l37 -3 3 -205 c2 -180 5 -208 21 -230 22 -30 68 -45 114 -36 31 6 33 9 29 36
-4 25 -9 30 -32 30 -15 0 -32 6 -38 13 -5 6 -12 98 -14 205 l-4 192 43 0 c43
0 43 0 43 35 0 35 0 35 -45 35 l-45 0 0 75 0 75 -41 0 -40 0 2 -72z"/>
<path d="M2547 665 c-26 -6 -65 -26 -86 -43 -43 -34 -51 -33 -51 10 0 25 -3
28 -35 28 l-35 0 0 -270 0 -270 40 0 40 0 0 183 c0 158 2 187 19 217 27 52 74
80 133 80 108 0 117 -22 118 -273 1 -107 3 -197 5 -199 2 -2 23 -2 46 0 l42 4
-6 197 c-6 199 -16 261 -45 295 -40 44 -112 60 -185 41z"/>
<path d="M3350 671 c-61 -20 -92 -44 -111 -84 -29 -64 -26 -77 19 -77 34 0 39
3 47 32 16 50 56 73 130 73 86 0 119 -23 123 -87 2 -30 -2 -49 -12 -57 -7 -6
-64 -20 -125 -31 -179 -30 -221 -63 -221 -169 0 -99 60 -153 170 -152 62 0
134 27 166 62 23 25 31 24 38 -6 9 -34 47 -57 88 -53 29 3 33 7 36 36 3 28 0
32 -21 32 -22 0 -25 5 -31 61 -3 34 -6 119 -6 188 0 149 -12 185 -74 215 -44
21 -173 31 -216 17z m210 -323 c0 -44 -6 -72 -19 -94 -24 -39 -97 -74 -157
-74 -37 0 -51 5 -76 30 -27 27 -30 36 -25 71 7 55 30 76 96 89 31 7 81 17 111
24 30 8 58 14 63 15 4 0 7 -27 7 -61z"/>
<path d="M1893 661 c-57 -15 -97 -45 -120 -91 -31 -63 -29 -70 16 -70 34 0 39
3 47 32 19 66 141 95 216 51 30 -17 33 -24 36 -70 4 -65 -2 -68 -138 -88 -115
-16 -165 -37 -197 -85 -49 -71 -16 -182 63 -221 74 -35 184 -13 251 50 26 24
33 26 33 7 0 -7 11 -25 25 -40 21 -23 32 -27 68 -24 37 3 42 6 45 30 3 23 -1
27 -25 30 l-28 3 -5 195 c-6 223 -13 243 -91 274 -49 20 -151 29 -196 17z
m197 -335 c0 -55 -4 -69 -26 -96 -66 -77 -190 -87 -238 -19 -24 35 -20 74 12
109 23 27 39 33 117 46 50 9 92 18 94 20 2 2 13 4 23 4 16 0 18 -9 18 -64z"/>
<path d="M1170 433 c0 -188 2 -223 18 -252 24 -48 62 -73 121 -79 77 -7 118 5
166 49 23 21 45 39 49 39 3 0 6 -17 6 -38 0 -38 0 -38 37 -34 l36 5 -6 195
c-4 107 -7 226 -7 264 l0 68 -34 0 -34 0 -4 -182 c-5 -196 -10 -219 -63 -268
-19 -18 -40 -25 -83 -28 -113 -8 -132 38 -132 321 l0 157 -35 0 -35 0 0 -217z"/>
</g>
</svg>
