<?xml version="1.0" standalone="no"?>
<!DOCTYPE svg PUBLIC "-//W3C//DTD SVG 20010904//EN"
 "http://www.w3.org/TR/2001/REC-SVG-20010904/DTD/svg10.dtd">
<svg version="1.0" xmlns="http://www.w3.org/2000/svg"
 width="398.000000pt" height="627.000000pt" viewBox="0 0 398.000000 627.000000"
 preserveAspectRatio="xMidYMid meet">

<g transform="translate(0.000000,627.000000) scale(0.100000,-0.100000)"
fill="#000000" stroke="none">
<path d="M1315 5051 c-222 -54 -445 -180 -555 -312 -62 -75 -90 -128 -90 -172
0 -69 76 -240 150 -338 66 -88 234 -261 315 -323 44 -35 123 -91 175 -126 120
-80 307 -219 384 -284 121 -103 252 -290 289 -414 l23 -77 18 70 c47 191 182
346 466 537 309 208 562 420 673 566 109 142 197 323 233 479 9 40 16 121 17
195 2 114 0 129 -19 155 -12 15 -31 29 -43 31 -14 2 -122 -46 -274 -122 -292
-146 -328 -157 -537 -158 -234 -1 -349 32 -610 173 -238 129 -429 166 -615
120z"/>
</g>
</svg>
